
<svg width="200" height="60" viewBox="0 0 200 60" fill="none" xmlns="http://www.w3.org/2000/svg">
  <path d="M10 10H50C55.5228 10 60 14.4772 60 20V40C60 45.5228 55.5228 50 50 50H10C4.47715 50 0 45.5228 0 40V20C0 14.4772 4.47715 10 10 10Z" fill="#2A9D8F"/>
  <path d="M73.328 17.032H65.2V39H70.752V32.88H73.328C78.672 32.88 82.032 29.736 82.032 24.952C82.032 20.168 78.672 17.032 73.328 17.032ZM73.152 28.48H70.752V21.432H73.152C75.52 21.432 76.704 22.848 76.704 24.952C76.704 27.064 75.52 28.48 73.152 28.48Z" fill="white"/>
  <path d="M82.8721 31.032C82.8721 35.976 86.5681 39.496 91.4801 39.496C96.4321 39.496 100.144 35.976 100.144 31.032C100.144 26.088 96.4321 22.536 91.4801 22.536C86.5681 22.536 82.8721 26.088 82.8721 31.032ZM87.3441 31.032C87.3441 28.352 89.2161 26.576 91.4801 26.576C93.7761 26.576 95.6721 28.352 95.6721 31.032C95.6721 33.712 93.7761 35.456 91.4801 35.456C89.2161 35.456 87.3441 33.712 87.3441 31.032Z" fill="white"/>
  <path d="M102.039 31.032C102.039 35.976 105.935 39.496 111.039 39.496C116.143 39.496 120.039 35.976 120.039 31.032C120.039 26.088 116.143 22.536 111.039 22.536C105.935 22.536 102.039 26.088 102.039 31.032ZM106.511 31.032C106.511 28.352 108.383 26.576 111.039 26.576C113.695 26.576 115.567 28.352 115.567 31.032C115.567 33.712 113.695 35.456 111.039 35.456C108.383 35.456 106.511 33.712 106.511 31.032Z" fill="white"/>
  <path d="M142.54 17.032H137.332V26.264C136.276 24.096 134.02 22.536 131.212 22.536C127.1 22.536 124.012 25.976 124.012 31.032C124.012 36.088 127.1 39.496 131.212 39.496C134.1 39.496 136.34 37.88 137.332 35.624V39H142.54V17.032ZM132.956 35.456C130.732 35.456 128.972 33.712 128.972 31.032C128.972 28.352 130.732 26.576 132.956 26.576C135.18 26.576 136.94 28.352 136.94 31.032C136.94 33.712 135.18 35.456 132.956 35.456Z" fill="white"/>
  <path d="M177.75 22.536C174.934 22.536 172.678 24.072 171.59 26.264C170.534 24.096 168.278 22.536 165.47 22.536C162.67 22.536 160.622 23.832 159.566 25.832V23.032H154.358V39H159.566V30.968C159.566 28.208 160.966 26.608 163.11 26.608C165.222 26.608 166.494 28.208 166.494 30.968V39H171.702V30.968C171.702 28.208 173.102 26.608 175.246 26.608C177.358 26.608 178.63 28.208 178.63 30.968V39H183.838V30.04C183.838 25.352 181.174 22.536 177.75 22.536Z" fill="white"/>
</svg>
