
<svg width="200" height="60" viewBox="0 0 200 60" fill="none" xmlns="http://www.w3.org/2000/svg">
  <path d="M10 10H50C55.5228 10 60 14.4772 60 20V40C60 45.5228 55.5228 50 50 50H10C4.47715 50 0 45.5228 0 40V20C0 14.4772 4.47715 10 10 10Z" fill="#3F7E44"/>
  <path d="M80.742 31.032C80.742 26.088 76.942 22.536 71.678 22.536C66.446 22.536 62.646 26.088 62.646 31.032C62.646 35.976 66.446 39.496 71.678 39.496C75.598 39.496 78.934 37.272 80.166 33.552L75.534 32.464C74.846 34.224 73.398 35.456 71.678 35.456C69.358 35.456 67.534 33.712 67.534 31.032C67.534 28.352 69.358 26.576 71.678 26.576C73.398 26.576 74.846 27.84 75.534 29.6L80.166 28.512C78.934 24.792 75.598 22.536 71.678 22.536C71.678 22.536 76.942 22.536 71.678 22.536C66.446 22.536 62.646 26.088 62.646 31.032C62.646 35.976 66.446 39.496 71.678 39.496C75.598 39.496 78.934 37.272 80.166 33.552L75.534 32.464C74.846 34.224 73.398 35.456 71.678 35.456C69.358 35.456 67.534 33.712 67.534 31.032C67.534 28.352 69.358 26.576 71.678 26.576C73.398 26.576 74.846 27.84 75.534 29.6L80.166 28.512C78.934 24.792 75.598 22.536 71.678 22.536Z" fill="white"/>
  <path d="M97.97 27.336L93.618 26.368C92.77 26.144 91.874 25.536 91.874 24.36C91.874 22.968 93.282 22.24 95.122 22.24C97.122 22.24 98.754 23.184 99.33 24.936L103.682 23.488C102.602 19.92 99.362 17.536 95.122 17.536C90.098 17.536 86.53 20.216 86.53 24.552C86.53 28.248 89.314 30.488 92.482 31.16L96.834 32.112C97.842 32.336 98.45 32.992 98.45 33.808C98.45 35.248 96.994 36.072 95.09 36.072C92.642 36.072 91.01 34.968 90.482 33.072L86.066 34.488C87.042 38.344 90.658 40.76 95.09 40.76C100.082 40.76 103.794 38.024 103.794 33.616C103.794 29.48 100.738 27.96 97.97 27.336Z" fill="white"/>
  <path d="M133.144 22.536C130.328 22.536 128.072 24.072 126.984 26.264C125.928 24.096 123.672 22.536 120.864 22.536C118.064 22.536 116.016 23.832 114.96 25.832V23.032H109.752V39H114.96V30.968C114.96 28.208 116.36 26.608 118.504 26.608C120.616 26.608 121.888 28.208 121.888 30.968V39H127.096V30.968C127.096 28.208 128.496 26.608 130.64 26.608C132.752 26.608 134.024 28.208 134.024 30.968V39H139.232V30.04C139.232 25.352 136.568 22.536 133.144 22.536Z" fill="white"/>
</svg>
