
<svg width="200" height="60" viewBox="0 0 200 60" fill="none" xmlns="http://www.w3.org/2000/svg">
  <path d="M10 10H50C55.5228 10 60 14.4772 60 20V40C60 45.5228 55.5228 50 50 50H10C4.47715 50 0 45.5228 0 40V20C0 14.4772 4.47715 10 10 10Z" fill="#FF6479"/>
  <path d="M68 21.08V39H73.128V32.752H76.312L80.28 39H86.2L81.368 31.664C84.024 30.592 85.72 28.288 85.72 25.048C85.72 20.376 82.424 17.032 76.696 17.032H68V21.08ZM76.104 21.08C78.808 21.08 80.568 22.616 80.568 25.048C80.568 27.48 78.776 29.032 76.104 29.032H73.128V21.08H76.104Z" fill="white"/>
  <path d="M86.84 30.976C86.84 35.904 90.712 39.496 95.96 39.496C101.208 39.496 105.08 35.904 105.08 30.976C105.08 26.048 101.208 22.472 95.96 22.472C90.712 22.472 86.84 26.048 86.84 30.976ZM91.992 30.976C91.992 28.416 93.688 26.512 95.96 26.512C98.232 26.512 99.928 28.416 99.928 30.976C99.928 33.536 98.232 35.456 95.96 35.456C93.688 35.456 91.992 33.536 91.992 30.976Z" fill="white"/>
  <path d="M106.702 31.008C106.702 35.968 110.446 39.496 115.734 39.496C119.766 39.496 123.222 37.112 124.406 33.128L119.638 32.04C118.998 33.864 117.574 34.936 115.734 34.936C113.606 34.936 111.854 33.288 111.854 31.008C111.854 28.728 113.606 27.032 115.734 27.032C117.574 27.032 118.998 28.152 119.638 29.976L124.406 28.888C123.222 24.904 119.766 22.472 115.734 22.472C110.446 22.472 106.702 26.048 106.702 31.008Z" fill="white"/>
  <path d="M144 17.032V26.464C142.928 24.232 140.576 22.472 137.584 22.472C133.296 22.472 130.048 25.912 130.048 31.008C130.048 36.104 133.296 39.496 137.584 39.496C140.656 39.496 142.992 37.672 144 35.376V39H148.832V17.032H144ZM139.392 35.456C137.072 35.456 135.2 33.664 135.2 31.008C135.2 28.352 137.072 26.512 139.392 26.512C141.712 26.512 143.584 28.352 143.584 31.008C143.584 33.664 141.712 35.456 139.392 35.456Z" fill="white"/>
  <path d="M172.47 27.336L168.118 26.368C167.27 26.144 166.374 25.536 166.374 24.36C166.374 22.968 167.782 22.24 169.622 22.24C171.622 22.24 173.254 23.184 173.83 24.936L178.182 23.488C177.102 19.92 173.862 17.536 169.622 17.536C164.598 17.536 161.03 20.216 161.03 24.552C161.03 28.248 163.814 30.488 166.982 31.16L171.334 32.112C172.342 32.336 172.95 32.992 172.95 33.808C172.95 35.248 171.494 36.072 169.59 36.072C167.142 36.072 165.51 34.968 164.982 33.072L160.566 34.488C161.542 38.344 165.158 40.76 169.59 40.76C174.582 40.76 178.294 38.024 178.294 33.616C178.294 29.48 175.238 27.96 172.47 27.336Z" fill="white"/>
</svg>
