
<svg width="200" height="60" viewBox="0 0 200 60" fill="none" xmlns="http://www.w3.org/2000/svg">
  <path d="M10 10H50C55.5228 10 60 14.4772 60 20V40C60 45.5228 55.5228 50 50 50H10C4.47715 50 0 45.5228 0 40V20C0 14.4772 4.47715 10 10 10Z" fill="#E63946"/>
  <path d="M77.77 27.336L73.418 26.368C72.57 26.144 71.674 25.536 71.674 24.36C71.674 22.968 73.082 22.24 74.922 22.24C76.922 22.24 78.554 23.184 79.13 24.936L83.482 23.488C82.402 19.92 79.162 17.536 74.922 17.536C69.898 17.536 66.33 20.216 66.33 24.552C66.33 28.248 69.114 30.488 72.282 31.16L76.634 32.112C77.642 32.336 78.25 32.992 78.25 33.808C78.25 35.248 76.794 36.072 74.89 36.072C72.442 36.072 70.81 34.968 70.282 33.072L65.866 34.488C66.842 38.344 70.458 40.76 74.89 40.76C79.882 40.76 83.594 38.024 83.594 33.616C83.594 29.48 80.538 27.96 77.77 27.336Z" fill="white"/>
  <path d="M84.3741 23.032V39H89.5821V31.256C89.5821 28.352 91.1101 26.576 93.5901 26.576C93.9101 26.576 94.2141 26.608 94.5181 26.672V22.536C91.9901 22.536 90.3261 23.752 89.5821 25.896V23.032H84.3741Z" fill="white"/>
  <path d="M96.9387 23.032V39H102.147V23.032H96.9387ZM99.5547 21.208C101.123 21.208 102.371 19.96 102.371 18.392C102.371 16.824 101.123 15.576 99.5547 15.576C97.9867 15.576 96.7387 16.824 96.7387 18.392C96.7387 19.96 97.9867 21.208 99.5547 21.208Z" fill="white"/>
  <path d="M123.246 17.032H117.75L110.902 25V15.576H105.694V39H110.902V31.704L112.318 30.072L118.166 39H124.31L115.766 26.544L123.246 17.032Z" fill="white"/>
  <path d="M142.25 22.536C139.434 22.536 137.178 24.072 136.09 26.264C135.034 24.096 132.778 22.536 129.97 22.536C127.17 22.536 125.122 23.832 124.066 25.832V23.032H118.858V39H124.066V30.968C124.066 28.208 125.466 26.608 127.61 26.608C129.722 26.608 130.994 28.208 130.994 30.968V39H136.202V30.968C136.202 28.208 137.602 26.608 139.746 26.608C141.858 26.608 143.13 28.208 143.13 30.968V39H148.338V30.04C148.338 25.352 145.674 22.536 142.25 22.536Z" fill="white"/>
</svg>
